<svg width="21" height="20" viewBox="0 0 21 20" fill="none" xmlns="http://www.w3.org/2000/svg">
<path d="M5.83321 3.33338C5.83321 2.9798 5.69275 2.64069 5.44272 2.39067C5.1927 2.14064 4.8536 2.00018 4.50001 2.00018C4.14642 2.00018 3.80732 2.14064 3.55729 2.39067C3.30727 2.64069 3.16681 2.9798 3.16681 3.33338C3.16694 3.59872 3.24633 3.85798 3.39477 4.07791C3.54322 4.29784 3.75397 4.46842 4.00001 4.56778V8.66678H5.00001V4.56778C5.24609 4.46849 5.45689 4.29792 5.60535 4.07798C5.75381 3.85803 5.83315 3.59874 5.83321 3.33338ZM17.8334 3.33338C17.8274 2.98374 17.6842 2.65047 17.4348 2.40535C17.1854 2.16023 16.8497 2.02288 16.5 2.02288C16.1503 2.02288 15.8146 2.16023 15.5652 2.40535C15.3158 2.65047 15.1727 2.98374 15.1666 3.33338C15.1668 3.59875 15.2462 3.85802 15.3947 4.07795C15.5431 4.29788 15.7539 4.46845 16 4.56778V8.66678H17V4.56818C17.2461 4.46878 17.4569 4.29814 17.6054 4.07814C17.7539 3.85814 17.8333 3.5988 17.8334 3.33338ZM14.5 9.33338C12.0312 10.189 9.16921 10.2554 6.50001 9.33338C5.88161 10.357 5.50001 11.771 5.50001 13.3336C5.50001 14.07 7.73761 14.6668 10.5 14.6668C13.2612 14.6668 15.5 14.07 15.5 13.3336C15.5 11.771 15.1186 10.357 14.5 9.33338ZM8.00001 13.3336C7.89054 13.3336 7.78214 13.3121 7.681 13.2702C7.57986 13.2283 7.48797 13.1669 7.41059 13.0895C7.3332 13.0121 7.27184 12.9202 7.23001 12.819C7.18818 12.7179 7.1667 12.6094 7.16681 12.5C7.16681 12.0398 7.53941 11.6668 8.00001 11.6668C8.46061 11.6668 8.83321 12.0398 8.83321 12.5C8.83331 12.6094 8.81184 12.7179 8.77001 12.819C8.72818 12.9202 8.66681 13.0121 8.58943 13.0895C8.51204 13.1669 8.42015 13.2283 8.31902 13.2702C8.21788 13.3121 8.10948 13.3336 8.00001 13.3336ZM13 13.3336C12.8905 13.3337 12.7821 13.3122 12.6809 13.2703C12.5797 13.2285 12.4878 13.1671 12.4104 13.0896C12.333 13.0122 12.2716 12.9203 12.2298 12.8191C12.1879 12.7179 12.1665 12.6095 12.1666 12.5C12.1666 12.0398 12.539 11.6668 13 11.6668C13.461 11.6668 13.8334 12.0398 13.8334 12.5C13.8335 12.6095 13.8121 12.7179 13.7702 12.8191C13.7284 12.9203 13.667 13.0122 13.5896 13.0896C13.5122 13.1671 13.4203 13.2285 13.3191 13.2703C13.2179 13.3122 13.1095 13.3337 13 13.3336Z" fill="white"/>
<path d="M10.5 4.66718C6.082 4.66718 2.5 8.54638 2.5 13.334C2.5 15.9122 6.082 18.0004 10.5 18.0004C14.9194 18.0004 18.5 15.9122 18.5 13.334C18.5 8.54638 14.9194 4.66718 10.5 4.66718ZM10.5 16.6672C6.5712 16.6672 3.8332 14.9106 3.8332 13.334C3.8332 9.29018 6.8238 6.00038 10.5 6.00038C14.1758 6.00038 17.1666 9.29018 17.1666 13.334C17.1666 14.9106 14.4292 16.6672 10.5 16.6672Z" fill="white"/>
</svg>
