<svg width="20" height="20" viewBox="0 0 20 20" fill="none" xmlns="http://www.w3.org/2000/svg">
<g clip-path="url(#clip0_1_4423)">
<rect width="20" height="20" rx="3.33333" fill="white"/>
<g clip-path="url(#clip1_1_4423)">
<path d="M13.9894 11.0885C13.8774 10.8125 13.7029 10.5755 13.4685 10.3802C13.2315 10.1849 12.9269 10.0469 12.5545 9.96615C12.992 9.78646 13.3149 9.52083 13.5258 9.17188C13.7367 8.82292 13.8409 8.42708 13.8409 7.98438C13.8409 7.125 13.5102 6.47917 12.8487 6.04688C12.4321 5.77344 11.9112 5.58594 11.2862 5.48438H11.3539V3.80469H10.3201V5.39844C10.242 5.39583 10.1664 5.39583 10.0857 5.39583H9.5206V3.80469H8.48935V5.39583H5.84352V6.72135L6.81487 6.92708V13.2422L5.84352 13.4479V14.7682H8.48935V16.1953H9.5232V14.7682H10.3227V16.1953H11.3539V14.7292C12.1404 14.6432 12.7706 14.4245 13.2367 14.0677C13.8513 13.599 14.1586 12.9063 14.1586 11.987C14.156 11.6667 14.0987 11.3672 13.9894 11.0885ZM11.2107 7.38802C11.4581 7.5651 11.5805 7.85156 11.5805 8.24219C11.5805 8.59896 11.4477 8.86198 11.1847 9.03125C10.9216 9.20052 10.5232 9.28646 9.98935 9.28646H9.07529V7.1224H10.0857C10.5883 7.11979 10.9633 7.21094 11.2107 7.38802ZM11.5701 12.7865C11.3461 12.9635 11.0102 13.0495 10.5623 13.0495H9.07529V10.776H10.6716C10.9633 10.776 11.2003 10.8203 11.38 10.9089C11.5597 10.9974 11.6925 11.1302 11.7784 11.3073C11.8644 11.4844 11.906 11.7109 11.906 11.9792C11.9086 12.3438 11.7966 12.6094 11.5701 12.7865Z" fill="#259C3B"/>
</g>
</g>
<defs>
<clipPath id="clip0_1_4423">
<rect width="20" height="20" rx="5.33333" fill="white"/>
</clipPath>
<clipPath id="clip1_1_4423">
<rect width="13.3333" height="13.3333" fill="white" transform="translate(3.33331 3.33301)"/>
</clipPath>
</defs>
</svg>
