<svg width="21" height="20" viewBox="0 0 21 20" fill="none" xmlns="http://www.w3.org/2000/svg">
<path d="M2.45982 11.0115C2.16563 9.09719 2.01854 8.14002 2.38046 7.29147C2.74238 6.44292 3.54535 5.86235 5.15127 4.70121L6.35115 3.83366C8.3489 2.38921 9.34778 1.66699 10.5003 1.66699C11.6529 1.66699 12.6517 2.38921 14.6495 3.83366L15.8494 4.70121C17.4553 5.86235 18.2583 6.44292 18.6202 7.29147C18.9821 8.14002 18.835 9.09719 18.5408 11.0115L18.29 12.644C17.8729 15.3578 17.6644 16.7147 16.6912 17.5242C15.7179 18.3337 14.295 18.3337 11.4493 18.3337H9.55131C6.7056 18.3337 5.28275 18.3337 4.30949 17.5242C3.33623 16.7147 3.12772 15.3578 2.71068 12.644L2.45982 11.0115Z" fill="#4D60FF"/>
<path d="M7.79073 15.4093L7.9996 18.3333H12.9996L13.2085 15.4093C13.3207 13.8372 12.0757 12.5 10.4996 12.5C8.92352 12.5 7.67844 13.8372 7.79073 15.4093Z" fill="#0B0524"/>
</svg>
