<svg width="313" height="30" viewBox="0 0 313 30" fill="none" xmlns="http://www.w3.org/2000/svg">
<path d="M1 1L0.999999 17" stroke="#897EB7" stroke-linecap="round"/>
<path d="M8.06818 1L8.06818 9" stroke="#897EB7" stroke-linecap="round"/>
<path d="M15.1364 1L15.1364 17" stroke="#897EB7" stroke-linecap="round"/>
<path d="M22.2045 1L22.2045 29" stroke="#897EB7" stroke-linecap="round"/>
<path d="M29.2727 1L29.2727 17" stroke="#897EB7" stroke-linecap="round"/>
<path d="M36.3409 1L36.3409 9" stroke="#897EB7" stroke-linecap="round"/>
<path d="M43.4091 1L43.4091 17" stroke="#897EB7" stroke-linecap="round"/>
<path d="M50.4773 1L50.4773 17" stroke="#897EB7" stroke-linecap="round"/>
<path d="M57.5454 1L57.5454 29" stroke="#897EB7" stroke-linecap="round"/>
<path d="M64.6136 1L64.6136 17" stroke="#897EB7" stroke-linecap="round"/>
<path d="M71.6818 1L71.6818 17" stroke="#897EB7" stroke-linecap="round"/>
<path d="M78.75 1L78.75 29" stroke="#897EB7" stroke-linecap="round"/>
<path d="M85.8182 1L85.8182 17" stroke="#897EB7" stroke-linecap="round"/>
<path d="M92.8864 1L92.8864 9" stroke="#897EB7" stroke-linecap="round"/>
<path d="M99.9545 1L99.9545 17" stroke="#897EB7" stroke-linecap="round"/>
<path d="M107.023 1L107.023 29" stroke="#897EB7" stroke-linecap="round"/>
<path d="M114.091 1L114.091 17" stroke="#897EB7" stroke-linecap="round"/>
<path d="M121.159 1L121.159 21" stroke="#897EB7" stroke-linecap="round"/>
<path d="M128.227 1L128.227 17" stroke="#897EB7" stroke-linecap="round"/>
<path d="M135.295 1L135.295 29" stroke="#897EB7" stroke-linecap="round"/>
<path d="M142.364 1L142.364 17" stroke="#897EB7" stroke-linecap="round"/>
<path d="M149.432 1L149.432 9" stroke="#897EB7" stroke-linecap="round"/>
<path d="M156.5 1L156.5 17" stroke="#897EB7" stroke-linecap="round"/>
<path d="M163.568 1L163.568 29" stroke="#897EB7" stroke-linecap="round"/>
<path d="M170.636 1L170.636 17" stroke="#897EB7" stroke-linecap="round"/>
<path d="M177.705 1L177.705 21" stroke="#897EB7" stroke-linecap="round"/>
<path d="M184.773 1L184.773 17" stroke="#897EB7" stroke-linecap="round"/>
<path d="M191.841 1L191.841 29" stroke="#897EB7" stroke-linecap="round"/>
<path d="M198.909 1L198.909 17" stroke="#897EB7" stroke-linecap="round"/>
<path d="M205.977 1L205.977 9" stroke="#897EB7" stroke-linecap="round"/>
<path d="M213.045 1L213.045 17" stroke="#897EB7" stroke-linecap="round"/>
<path d="M220.114 1L220.114 29" stroke="#897EB7" stroke-linecap="round"/>
<path d="M227.182 1L227.182 17" stroke="#897EB7" stroke-linecap="round"/>
<path d="M234.25 1L234.25 17" stroke="#897EB7" stroke-linecap="round"/>
<path d="M241.318 1L241.318 9" stroke="#897EB7" stroke-linecap="round"/>
<path d="M248.386 1L248.386 17" stroke="#897EB7" stroke-linecap="round"/>
<path d="M255.454 1L255.454 29" stroke="#897EB7" stroke-linecap="round"/>
<path d="M262.523 1L262.523 21" stroke="#897EB7" stroke-linecap="round"/>
<path d="M269.591 1L269.591 17" stroke="#897EB7" stroke-linecap="round"/>
<path d="M276.659 1L276.659 21" stroke="#897EB7" stroke-linecap="round"/>
<path d="M283.727 1L283.727 29" stroke="#897EB7" stroke-linecap="round"/>
<path d="M290.795 1L290.795 17" stroke="#897EB7" stroke-linecap="round"/>
<path d="M297.864 1L297.864 9" stroke="#897EB7" stroke-linecap="round"/>
<path d="M304.932 1L304.932 17" stroke="#897EB7" stroke-linecap="round"/>
<path d="M312 1L312 21" stroke="#897EB7" stroke-linecap="round"/>
</svg>
