<svg width="20" height="20" viewBox="0 0 20 20" fill="none" xmlns="http://www.w3.org/2000/svg">
<path d="M5.8335 14.9997L5.8335 13.333" stroke="#89849D" stroke-width="1.5" stroke-linecap="round"/>
<path d="M10 15L10 12.5" stroke="#89849D" stroke-width="1.5" stroke-linecap="round"/>
<path d="M14.1668 14.9997L14.1668 10.833" stroke="#89849D" stroke-width="1.5" stroke-linecap="round"/>
<path d="M5 8.83333C4.58579 8.83333 4.25 9.16912 4.25 9.58333C4.25 9.99755 4.58579 10.3333 5 10.3333V8.83333ZM13.9845 5.78877C14.19 5.42913 14.0651 4.97099 13.7054 4.76548C13.3458 4.55998 12.8877 4.68492 12.6822 5.04456L13.9845 5.78877ZM11.5446 4.50565C11.1359 4.57306 10.8593 4.95902 10.9267 5.36771C10.9941 5.7764 11.38 6.05306 11.7887 5.98565L11.5446 4.50565ZM12.723 5.0714L12.601 4.3314V4.3314L12.723 5.0714ZM13.9016 5.74127L13.1806 5.94783L13.9016 5.74127ZM13.4457 6.87323C13.5598 7.27142 13.975 7.50174 14.3732 7.38766C14.7714 7.27358 15.0017 6.8583 14.8877 6.46011L13.4457 6.87323ZM13.5618 5.05962L13.9324 4.40759V4.40759L13.5618 5.05962ZM5 10.3333C8.92417 10.3333 12.1431 9.0113 13.9845 5.78877L12.6822 5.04456C11.1903 7.65536 8.57583 8.83333 5 8.83333V10.3333ZM11.7887 5.98565L12.8451 5.8114L12.601 4.3314L11.5446 4.50565L11.7887 5.98565ZM13.1806 5.94783L13.4457 6.87323L14.8877 6.46011L14.6225 5.53471L13.1806 5.94783ZM12.8451 5.8114C12.9586 5.79268 13.0467 5.77819 13.1226 5.76741C13.1987 5.75661 13.2466 5.75192 13.2784 5.75047C13.3388 5.74771 13.2768 5.7603 13.1912 5.71165L13.9324 4.40759C13.6742 4.26083 13.4148 4.24268 13.21 4.25203C13.0228 4.26057 12.8049 4.29775 12.601 4.3314L12.8451 5.8114ZM14.6225 5.53471C14.573 5.36168 14.5153 5.15362 14.4382 4.98278C14.3479 4.78274 14.2008 4.56013 13.9324 4.40759L13.1912 5.71165C13.1522 5.68952 13.1176 5.65954 13.0919 5.62824C13.0696 5.60099 13.0643 5.58514 13.071 5.59991C13.0783 5.61606 13.0909 5.64834 13.1107 5.71094C13.1305 5.77345 13.1519 5.84765 13.1806 5.94783L14.6225 5.53471Z" fill="#89849D"/>
<path d="M2.0835 9.99968C2.0835 6.26772 2.0835 4.40175 3.24287 3.24238C4.40223 2.08301 6.26821 2.08301 10.0002 2.08301C13.7321 2.08301 15.5981 2.08301 16.7575 3.24238C17.9168 4.40175 17.9168 6.26772 17.9168 9.99968C17.9168 13.7316 17.9168 15.5976 16.7575 16.757C15.5981 17.9163 13.7321 17.9163 10.0002 17.9163C6.26821 17.9163 4.40223 17.9163 3.24287 16.757C2.0835 15.5976 2.0835 13.7316 2.0835 9.99968Z" stroke="#89849D" stroke-width="1.5"/>
</svg>
