<svg width="20" height="20" viewBox="0 0 20 20" fill="none" xmlns="http://www.w3.org/2000/svg">
<path d="M2.10843 12.3083C1.93122 13.47 2.72349 14.2763 3.69354 14.6782C7.4125 16.2188 12.5878 16.2188 16.3068 14.6782C17.2768 14.2763 18.0691 13.47 17.8919 12.3083C17.783 11.5944 17.2445 10.9999 16.8455 10.4194C16.3229 9.64971 16.271 8.81018 16.2709 7.91699C16.2709 4.46521 13.4634 1.66699 10.0002 1.66699C6.53694 1.66699 3.72943 4.46521 3.72943 7.91699C3.72936 8.81018 3.67743 9.64971 3.15484 10.4194C2.75586 10.9999 2.21734 11.5944 2.10843 12.3083Z" stroke="#89849D" stroke-width="1.5" stroke-linecap="round" stroke-linejoin="round"/>
<path d="M6.66699 15.834C7.04906 17.2717 8.3966 18.334 10.0003 18.334C11.604 18.334 12.9516 17.2717 13.3337 15.834" stroke="#89849D" stroke-width="1.5" stroke-linecap="round" stroke-linejoin="round"/>
</svg>
