<svg width="315" height="35" viewBox="0 0 315 35" fill="none" xmlns="http://www.w3.org/2000/svg">
<path d="M4.08604 32.1449C3.41275 32.142 2.83746 31.9645 2.36019 31.6122C1.88292 31.2599 1.51786 30.7472 1.26502 30.0739C1.01218 29.4006 0.88576 28.5895 0.88576 27.6406C0.88576 26.6946 1.01218 25.8864 1.26502 25.2159C1.5207 24.5455 1.88718 24.0341 2.36445 23.6818C2.84457 23.3295 3.41843 23.1534 4.08604 23.1534C4.75366 23.1534 5.3261 23.331 5.80337 23.6861C6.28065 24.0384 6.6457 24.5497 6.89854 25.2202C7.15423 25.8878 7.28207 26.6946 7.28207 27.6406C7.28207 28.5923 7.15565 29.4048 6.90281 30.0781C6.64997 30.7486 6.28491 31.2614 5.80764 31.6165C5.33036 31.9688 4.7565 32.1449 4.08604 32.1449ZM4.08604 31.0071C4.67695 31.0071 5.1386 30.7188 5.47099 30.142C5.80621 29.5653 5.97383 28.7315 5.97383 27.6406C5.97383 26.9162 5.89712 26.304 5.74371 25.804C5.59315 25.3011 5.37582 24.9205 5.09173 24.6619C4.81048 24.4006 4.47525 24.2699 4.08604 24.2699C3.49798 24.2699 3.03633 24.5597 2.7011 25.1392C2.36587 25.7187 2.19684 26.5526 2.194 27.6406C2.194 28.3679 2.26928 28.983 2.41985 29.4858C2.57326 29.9858 2.79059 30.3651 3.07184 30.6236C3.35309 30.8793 3.69116 31.0071 4.08604 31.0071ZM13.2492 30.3636V29.9034C13.2492 29.5739 13.3174 29.2727 13.4537 29C13.5929 28.7244 13.7946 28.5043 14.0588 28.3395C14.3259 28.1719 14.6483 28.0881 15.0262 28.0881C15.4125 28.0881 15.7364 28.1705 15.9978 28.3352C16.2591 28.5 16.4566 28.7202 16.5901 28.9957C16.7265 29.2713 16.7946 29.5739 16.7946 29.9034V30.3636C16.7946 30.6932 16.7265 30.9957 16.5901 31.2713C16.4537 31.544 16.2534 31.7642 15.9892 31.9318C15.7279 32.0966 15.4069 32.179 15.0262 32.179C14.6426 32.179 14.3188 32.0966 14.0546 31.9318C13.7904 31.7642 13.5901 31.544 13.4537 31.2713C13.3174 30.9957 13.2492 30.6932 13.2492 30.3636ZM14.2421 29.9034V30.3636C14.2421 30.608 14.3003 30.8295 14.4168 31.0284C14.5333 31.2273 14.7364 31.3267 15.0262 31.3267C15.3131 31.3267 15.5134 31.2273 15.627 31.0284C15.7407 30.8295 15.7975 30.608 15.7975 30.3636V29.9034C15.7975 29.6591 15.7421 29.4375 15.6313 29.2386C15.5233 29.0398 15.3216 28.9403 15.0262 28.9403C14.7421 28.9403 14.5404 29.0398 14.4211 29.2386C14.3017 29.4375 14.2421 29.6591 14.2421 29.9034ZM8.85998 25.3693V24.9091C8.85998 24.5795 8.92816 24.277 9.06452 24.0014C9.20373 23.7259 9.40543 23.5057 9.66964 23.3409C9.93668 23.1761 10.2591 23.0938 10.637 23.0938C11.0233 23.0938 11.3472 23.1761 11.6086 23.3409C11.8699 23.5057 12.0674 23.7259 12.2009 24.0014C12.3344 24.277 12.4012 24.5795 12.4012 24.9091V25.3693C12.4012 25.6989 12.333 26.0014 12.1966 26.277C12.0631 26.5497 11.8642 26.7699 11.6 26.9375C11.3387 27.1023 11.0176 27.1847 10.637 27.1847C10.2506 27.1847 9.92532 27.1023 9.66112 26.9375C9.39975 26.7699 9.20089 26.5497 9.06452 26.277C8.92816 26.0014 8.85998 25.6989 8.85998 25.3693ZM9.85714 24.9091V25.3693C9.85714 25.6136 9.91396 25.8352 10.0276 26.0341C10.1441 26.233 10.3472 26.3324 10.637 26.3324C10.9211 26.3324 11.1199 26.233 11.2336 26.0341C11.35 25.8352 11.4083 25.6136 11.4083 25.3693V24.9091C11.4083 24.6648 11.3529 24.4432 11.2421 24.2443C11.1313 24.0455 10.9296 23.946 10.637 23.946C10.3529 23.946 10.1512 24.0455 10.0319 24.2443C9.91538 24.4432 9.85714 24.6648 9.85714 24.9091ZM9.26481 32L15.2648 23.2727H16.2833L10.2833 32H9.26481Z" fill="#87858E"/>
<path d="M71.0703 32V31.0455L74.0235 27.9858C74.3388 27.6534 74.5988 27.3622 74.8033 27.1122C75.0107 26.8594 75.1655 26.6193 75.2678 26.392C75.3701 26.1648 75.4212 25.9233 75.4212 25.6676C75.4212 25.3778 75.353 25.1278 75.2167 24.9176C75.0803 24.7045 74.8942 24.5412 74.6584 24.4276C74.4226 24.3111 74.157 24.2528 73.8615 24.2528C73.549 24.2528 73.2763 24.3168 73.0434 24.4446C72.8104 24.5724 72.6314 24.7528 72.5064 24.9858C72.3814 25.2187 72.3189 25.4915 72.3189 25.804H71.0618C71.0618 25.2727 71.184 24.8082 71.4283 24.4105C71.6726 24.0128 72.0078 23.7045 72.434 23.4858C72.8601 23.2642 73.3445 23.1534 73.8871 23.1534C74.4354 23.1534 74.9184 23.2628 75.336 23.4815C75.7564 23.6974 76.0846 23.9929 76.3203 24.3679C76.5561 24.7401 76.674 25.1605 76.674 25.6293C76.674 25.9531 76.613 26.2699 76.4908 26.5795C76.3715 26.8892 76.1627 27.2344 75.8644 27.6151C75.5661 27.9929 75.1513 28.4517 74.6201 28.9915L72.8857 30.8068V30.8707H76.8147V32H71.0703ZM81.2104 32.1193C80.6763 32.1193 80.1962 32.017 79.7701 31.8125C79.3468 31.6051 79.0087 31.321 78.7559 30.9602C78.503 30.5994 78.3681 30.1875 78.351 29.7244H79.6294C79.6607 30.0994 79.8269 30.4077 80.128 30.6491C80.4292 30.8906 80.79 31.0114 81.2104 31.0114C81.5456 31.0114 81.8425 30.9347 82.101 30.7812C82.3624 30.625 82.5669 30.4105 82.7147 30.1378C82.8652 29.8651 82.9405 29.554 82.9405 29.2045C82.9405 28.8494 82.8638 28.5327 82.7104 28.2543C82.557 27.9759 82.3453 27.7571 82.0755 27.598C81.8084 27.4389 81.5016 27.358 81.155 27.3551C80.8908 27.3551 80.6252 27.4006 80.3581 27.4915C80.0911 27.5824 79.8752 27.7017 79.7104 27.8494L78.5044 27.6705L78.9945 23.2727H83.7928V24.402H80.0897L79.8127 26.8438H79.8638C80.0343 26.679 80.2601 26.5412 80.5414 26.4304C80.8255 26.3196 81.1294 26.2642 81.4533 26.2642C81.9846 26.2642 82.4576 26.3906 82.8723 26.6435C83.29 26.8963 83.6181 27.2415 83.8567 27.679C84.0982 28.1136 84.2175 28.6136 84.2147 29.179C84.2175 29.7443 84.0897 30.2486 83.8311 30.6918C83.5755 31.1349 83.2203 31.4844 82.7658 31.7401C82.3141 31.9929 81.7956 32.1193 81.2104 32.1193ZM90.2265 30.3636V29.9034C90.2265 29.5739 90.2947 29.2727 90.4311 29C90.5703 28.7244 90.772 28.5043 91.0362 28.3395C91.3032 28.1719 91.6257 28.0881 92.0035 28.0881C92.3899 28.0881 92.7137 28.1705 92.9751 28.3352C93.2365 28.5 93.4339 28.7202 93.5674 28.9957C93.7038 29.2713 93.772 29.5739 93.772 29.9034V30.3636C93.772 30.6932 93.7038 30.9957 93.5674 31.2713C93.4311 31.544 93.2308 31.7642 92.9666 31.9318C92.7052 32.0966 92.3842 32.179 92.0035 32.179C91.62 32.179 91.2961 32.0966 91.0319 31.9318C90.7677 31.7642 90.5674 31.544 90.4311 31.2713C90.2947 30.9957 90.2265 30.6932 90.2265 30.3636ZM91.2194 29.9034V30.3636C91.2194 30.608 91.2777 30.8295 91.3941 31.0284C91.5106 31.2273 91.7137 31.3267 92.0035 31.3267C92.2904 31.3267 92.4907 31.2273 92.6044 31.0284C92.718 30.8295 92.7748 30.608 92.7748 30.3636V29.9034C92.7748 29.6591 92.7194 29.4375 92.6086 29.2386C92.5007 29.0398 92.299 28.9403 92.0035 28.9403C91.7194 28.9403 91.5177 29.0398 91.3984 29.2386C91.2791 29.4375 91.2194 29.6591 91.2194 29.9034ZM85.8373 25.3693V24.9091C85.8373 24.5795 85.9055 24.277 86.0419 24.0014C86.1811 23.7259 86.3828 23.5057 86.647 23.3409C86.914 23.1761 87.2365 23.0938 87.6143 23.0938C88.0007 23.0938 88.3245 23.1761 88.5859 23.3409C88.8473 23.5057 89.0447 23.7259 89.1782 24.0014C89.3118 24.277 89.3785 24.5795 89.3785 24.9091V25.3693C89.3785 25.6989 89.3103 26.0014 89.174 26.277C89.0404 26.5497 88.8416 26.7699 88.5774 26.9375C88.316 27.1023 87.995 27.1847 87.6143 27.1847C87.2279 27.1847 86.9027 27.1023 86.6385 26.9375C86.3771 26.7699 86.1782 26.5497 86.0419 26.277C85.9055 26.0014 85.8373 25.6989 85.8373 25.3693ZM86.8345 24.9091V25.3693C86.8345 25.6136 86.8913 25.8352 87.0049 26.0341C87.1214 26.233 87.3245 26.3324 87.6143 26.3324C87.8984 26.3324 88.0973 26.233 88.2109 26.0341C88.3274 25.8352 88.3856 25.6136 88.3856 25.3693V24.9091C88.3856 24.6648 88.3302 24.4432 88.2194 24.2443C88.1086 24.0455 87.9069 23.946 87.6143 23.946C87.3302 23.946 87.1285 24.0455 87.0092 24.2443C86.8927 24.4432 86.8345 24.6648 86.8345 24.9091ZM86.2422 32L92.2422 23.2727H93.2606L87.2606 32H86.2422Z" fill="#87858E"/>
<path d="M149.758 32.1193C149.224 32.1193 148.743 32.017 148.317 31.8125C147.894 31.6051 147.556 31.321 147.303 30.9602C147.05 30.5994 146.915 30.1875 146.898 29.7244H148.177C148.208 30.0994 148.374 30.4077 148.675 30.6491C148.976 30.8906 149.337 31.0114 149.758 31.0114C150.093 31.0114 150.39 30.9347 150.648 30.7812C150.91 30.625 151.114 30.4105 151.262 30.1378C151.413 29.8651 151.488 29.554 151.488 29.2045C151.488 28.8494 151.411 28.5327 151.258 28.2543C151.104 27.9759 150.893 27.7571 150.623 27.598C150.356 27.4389 150.049 27.358 149.702 27.3551C149.438 27.3551 149.172 27.4006 148.905 27.4915C148.638 27.5824 148.422 27.7017 148.258 27.8494L147.052 27.6705L147.542 23.2727H152.34V24.402H148.637L148.36 26.8438H148.411C148.582 26.679 148.807 26.5412 149.089 26.4304C149.373 26.3196 149.677 26.2642 150.001 26.2642C150.532 26.2642 151.005 26.3906 151.42 26.6435C151.837 26.8963 152.165 27.2415 152.404 27.679C152.645 28.1136 152.765 28.6136 152.762 29.179C152.765 29.7443 152.637 30.2486 152.378 30.6918C152.123 31.1349 151.768 31.4844 151.313 31.7401C150.861 31.9929 150.343 32.1193 149.758 32.1193ZM157.257 32.1449C156.583 32.142 156.008 31.9645 155.531 31.6122C155.054 31.2599 154.689 30.7472 154.436 30.0739C154.183 29.4006 154.056 28.5895 154.056 27.6406C154.056 26.6946 154.183 25.8864 154.436 25.2159C154.691 24.5455 155.058 24.0341 155.535 23.6818C156.015 23.3295 156.589 23.1534 157.257 23.1534C157.924 23.1534 158.497 23.331 158.974 23.6861C159.451 24.0384 159.816 24.5497 160.069 25.2202C160.325 25.8878 160.453 26.6946 160.453 27.6406C160.453 28.5923 160.326 29.4048 160.074 30.0781C159.821 30.7486 159.456 31.2614 158.978 31.6165C158.501 31.9688 157.927 32.1449 157.257 32.1449ZM157.257 31.0071C157.848 31.0071 158.309 30.7188 158.642 30.142C158.977 29.5653 159.145 28.7315 159.145 27.6406C159.145 26.9162 159.068 26.304 158.914 25.804C158.764 25.3011 158.547 24.9205 158.262 24.6619C157.981 24.4006 157.646 24.2699 157.257 24.2699C156.669 24.2699 156.207 24.5597 155.872 25.1392C155.537 25.7187 155.368 26.5526 155.365 27.6406C155.365 28.3679 155.44 28.983 155.591 29.4858C155.744 29.9858 155.961 30.3651 156.243 30.6236C156.524 30.8793 156.862 31.0071 157.257 31.0071ZM166.42 30.3636V29.9034C166.42 29.5739 166.488 29.2727 166.624 29C166.764 28.7244 166.965 28.5043 167.23 28.3395C167.497 28.1719 167.819 28.0881 168.197 28.0881C168.583 28.0881 168.907 28.1705 169.168 28.3352C169.43 28.5 169.627 28.7202 169.761 28.9957C169.897 29.2713 169.965 29.5739 169.965 29.9034V30.3636C169.965 30.6932 169.897 30.9957 169.761 31.2713C169.624 31.544 169.424 31.7642 169.16 31.9318C168.899 32.0966 168.578 32.179 168.197 32.179C167.813 32.179 167.489 32.0966 167.225 31.9318C166.961 31.7642 166.761 31.544 166.624 31.2713C166.488 30.9957 166.42 30.6932 166.42 30.3636ZM167.413 29.9034V30.3636C167.413 30.608 167.471 30.8295 167.588 31.0284C167.704 31.2273 167.907 31.3267 168.197 31.3267C168.484 31.3267 168.684 31.2273 168.798 31.0284C168.911 30.8295 168.968 30.608 168.968 30.3636V29.9034C168.968 29.6591 168.913 29.4375 168.802 29.2386C168.694 29.0398 168.492 28.9403 168.197 28.9403C167.913 28.9403 167.711 29.0398 167.592 29.2386C167.472 29.4375 167.413 29.6591 167.413 29.9034ZM162.031 25.3693V24.9091C162.031 24.5795 162.099 24.277 162.235 24.0014C162.374 23.7259 162.576 23.5057 162.84 23.3409C163.107 23.1761 163.43 23.0938 163.808 23.0938C164.194 23.0938 164.518 23.1761 164.779 23.3409C165.041 23.5057 165.238 23.7259 165.372 24.0014C165.505 24.277 165.572 24.5795 165.572 24.9091V25.3693C165.572 25.6989 165.504 26.0014 165.367 26.277C165.234 26.5497 165.035 26.7699 164.771 26.9375C164.509 27.1023 164.188 27.1847 163.808 27.1847C163.421 27.1847 163.096 27.1023 162.832 26.9375C162.57 26.7699 162.372 26.5497 162.235 26.277C162.099 26.0014 162.031 25.6989 162.031 25.3693ZM163.028 24.9091V25.3693C163.028 25.6136 163.085 25.8352 163.198 26.0341C163.315 26.233 163.518 26.3324 163.808 26.3324C164.092 26.3324 164.291 26.233 164.404 26.0341C164.521 25.8352 164.579 25.6136 164.579 25.3693V24.9091C164.579 24.6648 164.524 24.4432 164.413 24.2443C164.302 24.0455 164.1 23.946 163.808 23.946C163.524 23.946 163.322 24.0455 163.203 24.2443C163.086 24.4432 163.028 24.6648 163.028 24.9091ZM162.436 32L168.436 23.2727H169.454L163.454 32H162.436Z" fill="#87858E"/>
<path d="M223.628 32L227.438 24.4659V24.402H223.031V23.2727H228.801V24.4403L225.004 32H223.628ZM232.947 32.1193C232.413 32.1193 231.933 32.017 231.506 31.8125C231.083 31.6051 230.745 31.321 230.492 30.9602C230.239 30.5994 230.104 30.1875 230.087 29.7244H231.366C231.397 30.0994 231.563 30.4077 231.864 30.6491C232.165 30.8906 232.526 31.0114 232.947 31.0114C233.282 31.0114 233.579 30.9347 233.837 30.7812C234.099 30.625 234.303 30.4105 234.451 30.1378C234.602 29.8651 234.677 29.554 234.677 29.2045C234.677 28.8494 234.6 28.5327 234.447 28.2543C234.293 27.9759 234.082 27.7571 233.812 27.598C233.545 27.4389 233.238 27.358 232.891 27.3551C232.627 27.3551 232.362 27.4006 232.094 27.4915C231.827 27.5824 231.612 27.7017 231.447 27.8494L230.241 27.6705L230.731 23.2727H235.529V24.402H231.826L231.549 26.8438H231.6C231.771 26.679 231.996 26.5412 232.278 26.4304C232.562 26.3196 232.866 26.2642 233.19 26.2642C233.721 26.2642 234.194 26.3906 234.609 26.6435C235.026 26.8963 235.354 27.2415 235.593 27.679C235.835 28.1136 235.954 28.6136 235.951 29.179C235.954 29.7443 235.826 30.2486 235.567 30.6918C235.312 31.1349 234.957 31.4844 234.502 31.7401C234.05 31.9929 233.532 32.1193 232.947 32.1193ZM241.963 30.3636V29.9034C241.963 29.5739 242.031 29.2727 242.167 29C242.307 28.7244 242.508 28.5043 242.773 28.3395C243.04 28.1719 243.362 28.0881 243.74 28.0881C244.126 28.0881 244.45 28.1705 244.711 28.3352C244.973 28.5 245.17 28.7202 245.304 28.9957C245.44 29.2713 245.508 29.5739 245.508 29.9034V30.3636C245.508 30.6932 245.44 30.9957 245.304 31.2713C245.167 31.544 244.967 31.7642 244.703 31.9318C244.442 32.0966 244.121 32.179 243.74 32.179C243.356 32.179 243.032 32.0966 242.768 31.9318C242.504 31.7642 242.304 31.544 242.167 31.2713C242.031 30.9957 241.963 30.6932 241.963 30.3636ZM242.956 29.9034V30.3636C242.956 30.608 243.014 30.8295 243.13 31.0284C243.247 31.2273 243.45 31.3267 243.74 31.3267C244.027 31.3267 244.227 31.2273 244.341 31.0284C244.454 30.8295 244.511 30.608 244.511 30.3636V29.9034C244.511 29.6591 244.456 29.4375 244.345 29.2386C244.237 29.0398 244.035 28.9403 243.74 28.9403C243.456 28.9403 243.254 29.0398 243.135 29.2386C243.015 29.4375 242.956 29.6591 242.956 29.9034ZM237.574 25.3693V24.9091C237.574 24.5795 237.642 24.277 237.778 24.0014C237.917 23.7259 238.119 23.5057 238.383 23.3409C238.65 23.1761 238.973 23.0938 239.351 23.0938C239.737 23.0938 240.061 23.1761 240.322 23.3409C240.584 23.5057 240.781 23.7259 240.915 24.0014C241.048 24.277 241.115 24.5795 241.115 24.9091V25.3693C241.115 25.6989 241.047 26.0014 240.91 26.277C240.777 26.5497 240.578 26.7699 240.314 26.9375C240.052 27.1023 239.731 27.1847 239.351 27.1847C238.964 27.1847 238.639 27.1023 238.375 26.9375C238.113 26.7699 237.915 26.5497 237.778 26.277C237.642 26.0014 237.574 25.6989 237.574 25.3693ZM238.571 24.9091V25.3693C238.571 25.6136 238.628 25.8352 238.741 26.0341C238.858 26.233 239.061 26.3324 239.351 26.3324C239.635 26.3324 239.834 26.233 239.947 26.0341C240.064 25.8352 240.122 25.6136 240.122 25.3693V24.9091C240.122 24.6648 240.067 24.4432 239.956 24.2443C239.845 24.0455 239.643 23.946 239.351 23.946C239.067 23.946 238.865 24.0455 238.746 24.2443C238.629 24.4432 238.571 24.6648 238.571 24.9091ZM237.978 32L243.978 23.2727H244.997L238.997 32H237.978Z" fill="#87858E"/>
<path d="M288.25 23.2727V32H286.929V24.5938H286.878L284.79 25.9574V24.696L286.967 23.2727H288.25ZM293.549 32.1449C292.876 32.142 292.3 31.9645 291.823 31.6122C291.346 31.2599 290.981 30.7472 290.728 30.0739C290.475 29.4006 290.349 28.5895 290.349 27.6406C290.349 26.6946 290.475 25.8864 290.728 25.2159C290.984 24.5455 291.35 24.0341 291.827 23.6818C292.307 23.3295 292.881 23.1534 293.549 23.1534C294.217 23.1534 294.789 23.331 295.266 23.6861C295.744 24.0384 296.109 24.5497 296.361 25.2202C296.617 25.8878 296.745 26.6946 296.745 27.6406C296.745 28.5923 296.619 29.4048 296.366 30.0781C296.113 30.7486 295.748 31.2614 295.271 31.6165C294.793 31.9688 294.219 32.1449 293.549 32.1449ZM293.549 31.0071C294.14 31.0071 294.601 30.7188 294.934 30.142C295.269 29.5653 295.437 28.7315 295.437 27.6406C295.437 26.9162 295.36 26.304 295.207 25.804C295.056 25.3011 294.839 24.9205 294.555 24.6619C294.273 24.4006 293.938 24.2699 293.549 24.2699C292.961 24.2699 292.499 24.5597 292.164 25.1392C291.829 25.7187 291.66 26.5526 291.657 27.6406C291.657 28.3679 291.732 28.983 291.883 29.4858C292.036 29.9858 292.253 30.3651 292.535 30.6236C292.816 30.8793 293.154 31.0071 293.549 31.0071ZM301.195 32.1449C300.522 32.142 299.946 31.9645 299.469 31.6122C298.992 31.2599 298.627 30.7472 298.374 30.0739C298.121 29.4006 297.995 28.5895 297.995 27.6406C297.995 26.6946 298.121 25.8864 298.374 25.2159C298.63 24.5455 298.996 24.0341 299.473 23.6818C299.954 23.3295 300.527 23.1534 301.195 23.1534C301.863 23.1534 302.435 23.331 302.912 23.6861C303.39 24.0384 303.755 24.5497 304.008 25.2202C304.263 25.8878 304.391 26.6946 304.391 27.6406C304.391 28.5923 304.265 29.4048 304.012 30.0781C303.759 30.7486 303.394 31.2614 302.917 31.6165C302.439 31.9688 301.865 32.1449 301.195 32.1449ZM301.195 31.0071C301.786 31.0071 302.248 30.7188 302.58 30.142C302.915 29.5653 303.083 28.7315 303.083 27.6406C303.083 26.9162 303.006 26.304 302.853 25.804C302.702 25.3011 302.485 24.9205 302.201 24.6619C301.919 24.4006 301.584 24.2699 301.195 24.2699C300.607 24.2699 300.145 24.5597 299.81 25.1392C299.475 25.7187 299.306 26.5526 299.303 27.6406C299.303 28.3679 299.378 28.983 299.529 29.4858C299.682 29.9858 299.9 30.3651 300.181 30.6236C300.462 30.8793 300.8 31.0071 301.195 31.0071ZM310.358 30.3636V29.9034C310.358 29.5739 310.426 29.2727 310.563 29C310.702 28.7244 310.904 28.5043 311.168 28.3395C311.435 28.1719 311.757 28.0881 312.135 28.0881C312.522 28.0881 312.845 28.1705 313.107 28.3352C313.368 28.5 313.566 28.7202 313.699 28.9957C313.835 29.2713 313.904 29.5739 313.904 29.9034V30.3636C313.904 30.6932 313.835 30.9957 313.699 31.2713C313.563 31.544 313.362 31.7642 313.098 31.9318C312.837 32.0966 312.516 32.179 312.135 32.179C311.752 32.179 311.428 32.0966 311.164 31.9318C310.899 31.7642 310.699 31.544 310.563 31.2713C310.426 30.9957 310.358 30.6932 310.358 30.3636ZM311.351 29.9034V30.3636C311.351 30.608 311.409 30.8295 311.526 31.0284C311.642 31.2273 311.845 31.3267 312.135 31.3267C312.422 31.3267 312.622 31.2273 312.736 31.0284C312.85 30.8295 312.906 30.608 312.906 30.3636V29.9034C312.906 29.6591 312.851 29.4375 312.74 29.2386C312.632 29.0398 312.431 28.9403 312.135 28.9403C311.851 28.9403 311.649 29.0398 311.53 29.2386C311.411 29.4375 311.351 29.6591 311.351 29.9034ZM305.969 25.3693V24.9091C305.969 24.5795 306.037 24.277 306.174 24.0014C306.313 23.7259 306.514 23.5057 306.779 23.3409C307.046 23.1761 307.368 23.0938 307.746 23.0938C308.132 23.0938 308.456 23.1761 308.718 23.3409C308.979 23.5057 309.176 23.7259 309.31 24.0014C309.443 24.277 309.51 24.5795 309.51 24.9091V25.3693C309.51 25.6989 309.442 26.0014 309.306 26.277C309.172 26.5497 308.973 26.7699 308.709 26.9375C308.448 27.1023 308.127 27.1847 307.746 27.1847C307.36 27.1847 307.034 27.1023 306.77 26.9375C306.509 26.7699 306.31 26.5497 306.174 26.277C306.037 26.0014 305.969 25.6989 305.969 25.3693ZM306.966 24.9091V25.3693C306.966 25.6136 307.023 25.8352 307.137 26.0341C307.253 26.233 307.456 26.3324 307.746 26.3324C308.03 26.3324 308.229 26.233 308.343 26.0341C308.459 25.8352 308.517 25.6136 308.517 25.3693V24.9091C308.517 24.6648 308.462 24.4432 308.351 24.2443C308.24 24.0455 308.039 23.946 307.746 23.946C307.462 23.946 307.26 24.0455 307.141 24.2443C307.024 24.4432 306.966 24.6648 306.966 24.9091ZM306.374 32L312.374 23.2727H313.392L307.392 32H306.374Z" fill="#EFEFF0"/>
<path d="M6 1L6 17" stroke="#897EB7" stroke-linecap="round"/>
<path d="M82 1L82 17" stroke="#897EB7" stroke-linecap="round"/>
<path d="M158 1L158 17" stroke="#897EB7" stroke-linecap="round"/>
<path d="M234 1L234 17" stroke="#897EB7" stroke-linecap="round"/>
<path d="M310 1L310 17" stroke="white" stroke-linecap="round"/>
</svg>
