<svg width="20" height="20" viewBox="0 0 20 20" fill="none" xmlns="http://www.w3.org/2000/svg">
<path d="M8.10405 3.60424L8.10404 3.60424C7.52385 4.1844 7.24323 4.86151 7.24323 5.68109C7.24323 6.50089 7.52385 7.178 8.10403 7.75802L8.10405 3.60424ZM8.10405 3.60424C8.68406 3.02419 9.36107 2.74368 10.1809 2.74368M8.10405 3.60424L10.1809 2.74368M17.1683 13.4121L17.1683 13.4121C17.2358 13.7891 17.2818 14.147 17.3046 14.4758C17.3046 14.4759 17.3046 14.4759 17.3046 14.4759L17.1683 13.4121ZM17.1683 13.4121C17.0999 13.0313 17.0118 12.6707 16.906 12.3404L16.8108 12.3709M17.1683 13.4121L16.8108 12.3709M16.8108 12.3709L16.906 12.3404C16.7961 11.997 16.6469 11.6584 16.4624 11.334M16.8108 12.3709C16.703 12.0343 16.5566 11.702 16.3754 11.3834M14.8131 9.84259L14.8132 9.84262C15.1907 9.99227 15.5191 10.1982 15.7883 10.4558C16.0438 10.7001 16.2703 10.9959 16.4624 11.334M14.8131 9.84259L16.3754 11.3834M14.8131 9.84259C14.4348 9.69297 14.0172 9.61781 13.5727 9.61781C13.3705 9.61781 13.1841 9.70336 12.8657 9.9107L12.9202 9.9945M14.8131 9.84259L12.9202 9.9945M16.4624 11.334L16.3754 11.3834M16.4624 11.334C16.4624 11.334 16.4624 11.334 16.4623 11.334L16.3754 11.3834M12.9202 9.9945L12.8656 9.9107C12.64 10.0576 12.4137 10.2035 12.1868 10.3484C11.9782 10.4813 11.6911 10.6085 11.3304 10.725L11.3303 10.725M12.9202 9.9945L11.3303 10.725M11.3303 10.725C10.9834 10.8372 10.6319 10.8939 10.2855 10.8939C9.93944 10.8939 9.5879 10.8372 9.24066 10.725L9.24064 10.725M11.3303 10.725L9.24064 10.725M9.24064 10.725C8.88033 10.6085 8.59316 10.4814 8.38496 10.3485C8.13222 10.187 7.90364 10.0397 7.70543 9.91055C7.38725 9.70324 7.20082 9.61764 6.99867 9.61764C6.55399 9.61764 6.13649 9.69295 5.75829 9.84277C5.38101 9.99214 5.05248 10.198 4.78298 10.4559L4.85212 10.5282L4.78298 10.4559C4.52756 10.7003 4.30102 10.996 4.10904 11.334M9.24064 10.725L3.6655 12.3406M3.6655 12.3406L3.6655 12.3405C3.77553 11.9969 3.92484 11.6583 4.10904 11.334M3.6655 12.3406C3.55984 12.6709 3.47176 13.0313 3.40343 13.4121M3.6655 12.3406L3.40343 13.4121M4.10904 11.334L4.196 11.3834L4.10904 11.334C4.10904 11.334 4.10904 11.334 4.10904 11.334ZM15.6804 16.7752C16.0008 16.4669 16.1618 16.0441 16.1619 15.4675C16.1618 15.1564 16.1514 14.8505 16.1309 14.5582L16.1304 14.5511H16.1304C16.1104 14.2672 16.0699 13.9539 16.0101 13.6198C15.9508 13.289 15.8751 12.9793 15.7855 12.6992L15.7855 12.6992C15.7005 12.4336 15.584 12.1697 15.4394 11.9154L15.4394 11.9154C15.3024 11.6743 15.1459 11.4696 14.9749 11.306C14.8181 11.156 14.6185 11.0311 14.3801 10.9367C14.1694 10.8534 13.9317 10.8058 13.6715 10.7962C13.6376 10.8152 13.585 10.8464 13.5082 10.8964C13.3071 11.0276 13.0819 11.1727 12.82 11.3401L12.8199 11.3402C12.5219 11.5302 12.142 11.6993 11.6924 11.8446C11.2293 11.9943 10.756 12.0706 10.2857 12.0706C9.81543 12.0706 9.34221 11.9943 8.87888 11.8445C8.87887 11.8445 8.87885 11.8445 8.87884 11.8445L8.9096 11.7493L15.6804 16.7752ZM15.6804 16.7752L15.6742 16.7811C15.3412 17.0979 14.8958 17.257 14.2984 17.257H6.2735C5.67604 17.257 5.23061 17.0979 4.89783 16.7813C4.57329 16.4723 4.41022 16.0477 4.41022 15.4674C4.41022 15.1573 4.42044 14.8513 4.4409 14.5577L4.44091 14.5576C4.46067 14.2714 4.50123 13.956 4.56164 13.62L4.56164 13.62C4.6211 13.2889 4.69663 12.979 4.78616 12.6993C4.87133 12.4334 4.98762 12.1697 5.13211 11.9153C5.26906 11.6745 5.42557 11.4697 5.59662 11.306L5.59663 11.306C5.75344 11.1559 5.95304 11.0311 6.19155 10.9368L6.19157 10.9368C6.40212 10.8534 6.6398 10.8058 6.89985 10.7962L15.6804 16.7752ZM10.1809 2.74368C11.0006 2.74368 11.6777 3.02418 12.2578 3.60423M10.1809 2.74368L12.2578 3.60423M12.2578 3.60423C12.8379 4.1844 13.1185 4.86151 13.1185 5.68105M12.2578 3.60423L13.1185 5.68105M13.1185 5.68105C13.1185 6.50086 12.8379 7.17788 12.2578 7.75804M13.1185 5.68105L12.2578 7.75804M12.2578 7.75804C11.6777 8.33822 11.0006 8.61872 10.1809 8.61872M12.2578 7.75804L10.1809 8.61872M10.1809 8.61872C9.36133 8.61872 8.68437 8.3381 8.10403 7.75802L10.1809 8.61872ZM3.40343 13.4121C3.33573 13.7887 3.28985 14.1467 3.26704 14.4763L3.40343 13.4121ZM13.0899 2.7721L13.0898 2.77208C12.2906 1.97311 11.3102 1.56699 10.1809 1.56699C9.05127 1.56699 8.07098 1.97311 7.2719 2.77223C6.47282 3.57134 6.06654 4.55171 6.06654 5.68109C6.06654 6.81069 6.47279 7.79106 7.27193 8.59018L7.27195 8.59019C8.07128 9.38915 9.05164 9.79541 10.1809 9.79541H10.1809C11.3104 9.79541 12.2907 9.38926 13.09 8.59001L13.0193 8.5193L13.09 8.59001C13.889 7.79093 14.2952 6.81069 14.2952 5.68109C14.2952 4.55181 13.8891 3.57147 13.0899 2.7721Z" fill="#89849D" stroke="#89849D" stroke-width="0.2"/>
</svg>
